<?xml version="1.0" standalone="no"?><!DOCTYPE svg PUBLIC "-//W3C//DTD SVG 1.1//EN" "http://www.w3.org/Graphics/SVG/1.1/DTD/svg11.dtd"><svg t="1678180936594" class="icon" viewBox="0 0 1043 1024" version="1.1" xmlns="http://www.w3.org/2000/svg" p-id="1525" xmlns:xlink="http://www.w3.org/1999/xlink" width="203.7109375" height="200"><path d="M0 508.385882l97.581176-53.609411h14.456471l401.167059 219.858823h14.45647l401.167059-219.858823h14.456471l97.581176 53.609411-507.783529 283.708236H518.023529z m24.696471-240.941176L513.204706 0h14.45647l489.110589 268.649412a13.854118 13.854118 0 0 1 0 24.69647L528.263529 561.995294h-15.058823L24.696471 293.345882c-9.637647-9.637647-9.637647-19.275294 0-24.69647zM522.842353 903.529412l401.167059-219.858824h14.45647l97.581177 53.609412L528.263529 1024h-15.058823L0 738.484706l97.581176-53.609412h14.456471L513.204706 903.529412c0 4.818824 9.637647 4.818824 9.637647 0z m0 0" fill="#5D6A66" p-id="1526"></path></svg>